<?xml version="1.0" encoding="utf-8"?>
<!-- Generator: Adobe Illustrator 15.1.0, SVG Export Plug-In . SVG Version: 6.00 Build 0)  -->
<!DOCTYPE svg PUBLIC "-//W3C//DTD SVG 1.1//EN" "http://www.w3.org/Graphics/SVG/1.1/DTD/svg11.dtd">
<svg version="1.1" xmlns="http://www.w3.org/2000/svg" xmlns:xlink="http://www.w3.org/1999/xlink" x="0px" y="0px" width="400px"
	 height="1370.924px" viewBox="0 0 400 1370.924" enable-background="new 0 0 400 1370.924" xml:space="preserve">
<g id="Layer_1">
	<rect x="-0.001" fill="#00DDF4" width="400" height="57.201"/>
	<rect y="1037.304" fill="#3D332A" width="400" height="45"/>
	<rect y="1082.304" fill="#54332E" width="400" height="45"/>
	<rect y="1127.304" fill="#8C341C" width="400" height="141.499"/>
	<polygon fill="#3D332A" points="306.761,1075.33 316.428,1088.33 339.761,1094.33 347.094,1087.996 356.094,1077.996 	"/>
	<path fill="#3D332A" d="M353.427,1088.995l-8.333,7l4.166,4.334c0,0,9.168,2,9.501,0s2.333-5.999,2.333-5.999L353.427,1088.995z"/>
	<polygon fill="#662A1D" points="0,1127.304 47,1113.848 133,1070.296 167.412,1062.828 243,1062.828 274.508,1070.296 
		321.667,1102.976 381.379,1123.662 400.879,1123.662 400,1235.22 0,1235.22 	"/>
	<polyline fill="#8C341C" points="45.294,1231.805 66.342,1172.404 79,1121.546 167.412,1062.828 183.296,1057.328 226,1059.804 
		243,1062.828 302.5,1106.04 306.763,1140.61 353.096,1177.146 356.096,1231.637 	"/>
	<polyline fill="#C1481E" points="112.333,1234.432 115,1174.355 129.5,1128.914 183.296,1057.328 226,1059.804 253.5,1096.766 
		268.5,1130.135 299.797,1183.086 299.797,1233.244 	"/>
	<rect x="-0.002" y="338.023" fill="#F8FFFF" width="400.001" height="75.116"/>
	<rect x="0" y="54.122" fill="#38E0FC" width="400" height="57.201"/>
	<rect x="-0.001" y="109.219" fill="#60EDFC" width="400" height="57.201"/>
	<rect x="-0.002" y="166.42" fill="#86F6FC" width="400.001" height="57.2"/>
	<rect x="-0.002" y="223.621" fill="#B1FCFC" width="400.001" height="57.201"/>
	<rect x="-0.001" y="280.822" fill="#E1FFFE" width="400.001" height="57.201"/>
	<polygon fill="#244F39" points="65.458,455.731 130.133,234.908 185.988,386.924 265.361,124.496 324.156,266.394 349,225.349 
		401.102,337.502 405.455,553.981 65.458,551.55 	"/>
	<rect x="315.018" y="558.555" fill="#4F390C" width="51.964" height="208.162"/>
	<rect x="245.159" y="558.555" fill="#332917" width="79.104" height="208.162"/>
	<rect x="167.003" y="558.555" fill="#3F3520" width="85.045" height="208.162"/>
	<rect x="109.001" y="558.555" fill="#56411D" width="85.045" height="208.162"/>
	<rect x="29.32" y="558.555" fill="#3F3520" width="85.044" height="208.162"/>
	<path fill="#237C16" d="M113.005,685.312c-2.761,0-5-2.238-5-5v-95.615c0-2.762,2.239-5,5-5s5,2.238,5,5v95.615
		C118.005,683.074,115.766,685.312,113.005,685.312z"/>
	<rect x="361.422" y="586.411" fill="#966905" width="38.577" height="180.307"/>
	<rect x="66.131" y="592.146" fill="#7A520A" width="18.238" height="56.491"/>
	<rect y="558.555" fill="#966905" width="49.262" height="208.162"/>
	<polygon fill="#2E684D" points="-13,413.139 31,262.907 69,366.328 123,187.791 163,284.328 183,225.349 314.822,551.55 
		-13,551.55 	"/>
	<path fill="#966905" d="M83.287,766.718h18.319c0-10.118-8.202-18.319-18.319-18.319V766.718z"/>
	<path fill="#966905" d="M49.262,731.761v16.638h16.876C57.258,747.612,50.166,740.608,49.262,731.761z"/>
	<path fill="#966905" d="M-79.784,658.475h18.319c0-10.118-8.202-18.319-18.319-18.319V658.475z"/>
	<rect x="49.262" y="748.399" fill="#966905" width="34.025" height="18.319"/>
	<path fill="#966905" d="M-79.784,674.333v16.638h16.876C-71.788,690.184-78.88,683.18-79.784,674.333z"/>
	<path fill="#966905" d="M362.421,748.399v-16.638c-0.904,8.847-8.004,15.851-16.893,16.638h-17.029
		c-10.126,0-18.337,8.201-18.337,18.319h18.337h34.058v-18.319H362.421z"/>
	<path fill="#7A520A" d="M66.05,648.637v18.319c10.118,0,18.319-8.202,18.319-18.319H66.05z"/>
	<rect x="48.18" y="657.949" fill="#895D06" width="18.238" height="24.703"/>
	<path fill="#895D06" d="M66.5,657.95V639.63c-10.118,0-18.319,8.202-18.319,18.319H66.5z"/>
	<path fill="#895D06" d="M48.14,681.812v18.319c10.118,0,18.319-8.202,18.319-18.319H48.14z"/>
	<rect x="342.901" y="611.842" fill="#845B08" width="18.238" height="56.491"/>
	<path fill="#845B08" d="M361.221,668.333v18.319c-10.118,0-18.319-8.202-18.319-18.319H361.221z"/>
	<path fill="#15560E" d="M129.006,649.304c-2.761,0-5-2.238-5-5v-92.667c0-2.762,2.239-5,5-5s5,2.238,5,5v92.667
		C134.006,647.066,131.767,649.304,129.006,649.304z"/>
	<path fill="#15560E" d="M251.895,633.713c-2.762,0-5-2.238-5-5v-42.107c0-2.762,2.238-5,5-5s5,2.238,5,5v42.107
		C256.895,631.475,254.656,633.713,251.895,633.713z"/>
	<path fill="#237C16" d="M284.919,662.95c-2.762,0-5-2.238-5-5v-61.336c0-2.762,2.238-5,5-5s5,2.238,5,5v61.336
		C289.919,660.711,287.681,662.95,284.919,662.95z"/>
	<path fill="#237C16" d="M300.933,691.653c-2.762,0-5-2.238-5-5V585.606c0-2.762,2.238-5,5-5s5,2.238,5,5v101.047
		C305.933,689.415,303.694,691.653,300.933,691.653z"/>
	<path fill="#15560E" d="M321.949,649.304c-2.762,0-5-2.238-5-5v-37.683c0-2.762,2.238-5,5-5s5,2.238,5,5v37.683
		C326.949,647.066,324.711,649.304,321.949,649.304z"/>
	<rect y="766.717" fill="#4E663E" width="400" height="27.585"/>
	<rect x="101.606" y="766.717" fill="#497C66" width="208.555" height="27.585"/>
	<rect y="794.302" fill="#495434" width="400" height="27.585"/>
	<rect x="129.259" y="794.302" fill="#3F6B57" width="153.249" height="27.585"/>
	<path fill="#3F6B57" d="M282.509,794.302v27.652c15.273,0,27.652-12.381,27.652-27.652H282.509z"/>
	<path fill="#3F6B57" d="M129.259,794.302h-27.652c0,15.273,12.381,27.652,27.652,27.652V794.302z"/>
	<rect y="821.887" fill="#3E4229" width="400" height="41.991"/>
	<rect y="863.878" fill="#2D2B21" width="400" height="173.426"/>
	<polygon fill="#514E42" points="74.667,842.77 28.457,857.017 13.176,930.741 39.627,993.296 83.69,1002.232 321.09,1005.867 
		373.689,986.707 388.582,909.372 346.442,850.314 219.1,832.441 	"/>
	<polygon fill="#7F7A63" points="119.032,860.545 52.241,885.243 26.587,925.857 39.627,993.296 83.69,1002.232 321.09,1005.867 
		373.689,986.707 362.501,907.024 300.262,866.689 225.42,858.87 	"/>
	<polygon fill="#9B9478" points="123.211,898.524 67.68,919.153 39.627,949.909 39.627,993.254 83.69,999.443 321.09,1001.96 
		373.689,988.69 355.555,937.062 298.586,906.902 221.511,889.03 	"/>
	<polygon fill="#6D6855" points="303.996,976.868 192.806,969.421 90.269,974.678 39.627,993.296 83.69,1002.232 278.852,1005.866 
		323.72,1005.867 373.689,988.69 	"/>
	<polygon fill="#514E42" points="303.078,862.478 297.033,872.774 294.332,911.635 287.113,897.201 287.639,880.001 
		284.955,870.356 282.277,862.09 	"/>
	<polygon fill="#2D2B21" points="149.501,1023.705 158.253,1008.801 162.891,971.157 167.747,992.008 171.852,998.339 
		175.736,1012.302 179.611,1024.265 	"/>
	<polygon fill="#514E42" points="176.549,1003.758 185.301,988.855 194.86,960.475 200.139,971.157 202.893,987.644 
		206.659,995.893 206.659,1004.319 	"/>
	<polygon fill="#2D2B21" points="164.557,1004.876 173.308,989.973 177.946,952.329 184.089,946.613 186.906,979.511 
		190.791,993.474 194.667,1005.437 	"/>
	<polygon fill="#2D2B21" points="183.296,1013.75 214.331,994.3 231.579,965.509 231.579,919.155 225.078,901.33 231.579,868.021 
		202.159,839.182 188.024,834.664 219.1,832.441 288.425,842.378 268.137,867.208 245.583,904.579 245.583,919.155 240.352,950.59 
		250.5,982.399 279.5,997.712 343.5,1005.869 	"/>
	<polygon fill="#3E4229" points="188.024,834.664 232.122,850.5 256.192,852.315 292.678,842.768 219.1,832.441 	"/>
	<polygon fill="#514E42" points="167.411,852.703 161.366,862.999 157.755,901.456 149.502,907.635 146.61,872.969 130.999,852.315 
		146.61,852.315 	"/>
	<polygon fill="#7F7A63" points="142.665,900.505 144.581,924.299 141.333,928.485 134.661,907.637 135.187,890.438 
		132.503,880.792 144.581,883.299 	"/>
	<polygon fill="#3D332A" points="30,1040.828 50.5,1020.328 72.667,1021.995 83,1033.328 101.606,1040.828 	"/>
	<rect x="0.002" y="1228.772" fill="#B53508" width="400.877" height="47.522"/>
	<rect x="0.002" y="1276.294" fill="#D86609" width="400.877" height="47.522"/>
	<rect y="1323.816" fill="#D69C0B" width="400.877" height="47.108"/>
	<path fill="#B53508" d="M61.188,1229.44c0,3.817-3.095,6.912-6.912,6.912l0,0c-3.817,0-6.912-3.095-6.912-6.912v-33.338
		c0-3.817,3.095-6.912,6.912-6.912l0,0c3.817,0,6.912,3.095,6.912,6.912V1229.44z"/>
	<path fill="#B53508" d="M74.766,1236.341c0,3.817-3.095,6.912-6.912,6.912l0,0c-3.817,0-6.912-3.095-6.912-6.912v-33.338
		c0-3.817,3.095-6.912,6.912-6.912l0,0c3.817,0,6.912,3.095,6.912,6.912V1236.341z"/>
	<path fill="#B53508" d="M61.437,1171.046c0-3.955-3.206-7.161-7.161-7.161l0,0c-3.955,0-7.161,3.206-7.161,7.161l0,0
		c0,3.954,3.206,7.161,7.161,7.161l0,0C58.23,1178.208,61.437,1175,61.437,1171.046L61.437,1171.046z"/>
	<path fill="#B53508" d="M47.722,1253.202c0,3.817-3.094,6.912-6.912,6.912l0,0c-3.817,0-6.912-3.095-6.912-6.912v-33.338
		c0-3.817,3.095-6.912,6.912-6.912l0,0c3.817,0,6.912,3.095,6.912,6.912V1253.202z"/>
	<path fill="#B53508" d="M188.143,1255.236c0,4.113-3.335,7.448-7.449,7.448l0,0c-4.113,0-7.448-3.335-7.448-7.448v-35.928
		c0-4.114,3.335-7.449,7.448-7.449l0,0c4.114,0,7.449,3.335,7.449,7.449V1255.236z"/>
	<path fill="#B53508" d="M202.776,1262.672c0,4.114-3.335,7.449-7.45,7.449l0,0c-4.114,0-7.448-3.335-7.448-7.449v-35.927
		c0-4.114,3.334-7.449,7.448-7.449l0,0c4.114,0,7.45,3.335,7.45,7.449V1262.672z"/>
	<path fill="#B53508" d="M188.411,1192.306c0-4.262-3.455-7.718-7.717-7.718l0,0c-4.262,0-7.716,3.456-7.716,7.718l0,0
		c0,4.262,3.455,7.717,7.716,7.717l0,0C184.956,1200.023,188.411,1196.568,188.411,1192.306L188.411,1192.306z"/>
	<path fill="#D86609" d="M274.354,1275.365c0-4.707-3.815-8.523-8.522-8.523l0,0c-4.706,0-8.522,3.816-8.522,8.523l0,0
		c0,4.706,3.816,8.522,8.522,8.522l0,0C270.538,1283.887,274.354,1280.071,274.354,1275.365L274.354,1275.365z"/>
	<path fill="#D86609" d="M274.354,1249.215c0-4.707-3.815-8.522-8.522-8.522l0,0c-4.706,0-8.522,3.815-8.522,8.522l0,0
		c0,4.706,3.816,8.522,8.522,8.522l0,0C270.538,1257.738,274.354,1253.921,274.354,1249.215L274.354,1249.215z"/>
	<path fill="#B53508" d="M256.92,1275.365c0-4.707-3.816-8.523-8.522-8.523l0,0c-4.706,0-8.522,3.816-8.522,8.523l0,0
		c0,4.706,3.816,8.522,8.522,8.522l0,0C253.104,1283.887,256.92,1280.071,256.92,1275.365L256.92,1275.365z"/>
	<path fill="#D86609" d="M125.109,1275.365c0-4.707-3.816-8.523-8.522-8.523l0,0c-4.707,0-8.523,3.816-8.523,8.523l0,0
		c0,4.706,3.816,8.522,8.523,8.522l0,0C121.293,1283.887,125.109,1280.071,125.109,1275.365L125.109,1275.365z"/>
	<path fill="#B53508" d="M107.676,1275.365c0-4.707-3.816-8.523-8.523-8.523l0,0c-4.706,0-8.522,3.816-8.522,8.523l0,0
		c0,4.706,3.816,8.522,8.522,8.522l0,0C103.859,1283.887,107.676,1280.071,107.676,1275.365L107.676,1275.365z"/>
	<path fill="#B53508" d="M142.543,1275.365c0-4.707-3.816-8.523-8.523-8.523l0,0c-4.706,0-8.522,3.816-8.522,8.523l0,0
		c0,4.706,3.816,8.522,8.522,8.522l0,0C138.727,1283.887,142.543,1280.071,142.543,1275.365L142.543,1275.365z"/>
	<path fill="#B53508" d="M314.152,1261.117c0,4.182-3.39,7.571-7.571,7.571l0,0c-4.18,0-7.569-3.39-7.569-7.571v-36.518
		c0-4.182,3.39-7.571,7.569-7.571l0,0c4.182,0,7.571,3.39,7.571,7.571V1261.117z"/>
	<path fill="#B53508" d="M329.026,1235.251c0,4.181-3.39,7.57-7.571,7.57l0,0c-4.182,0-7.571-3.39-7.571-7.57v-36.518
		c0-4.182,3.39-7.571,7.571-7.571l0,0c4.182,0,7.571,3.39,7.571,7.571V1235.251z"/>
	<path fill="#B53508" d="M329.299,1165.513c0-4.332-3.512-7.844-7.844-7.844l0,0c-4.332,0-7.844,3.512-7.844,7.844l0,0
		c0,4.332,3.512,7.844,7.844,7.844l0,0C325.787,1173.357,329.299,1169.845,329.299,1165.513L329.299,1165.513z"/>
	<path fill="#C1481E" d="M298.737,1228.73c0-4.332-3.512-7.844-7.844-7.844l0,0c-4.331,0-7.844,3.512-7.844,7.844l0,0
		c0,4.332,3.513,7.844,7.844,7.844l0,0C295.226,1236.574,298.737,1233.062,298.737,1228.73L298.737,1228.73z"/>
	<path fill="#C1481E" d="M218.209,1228.925c0-4.262-3.455-7.718-7.717-7.718l0,0c-4.262,0-7.718,3.456-7.718,7.718l0,0
		c0,4.262,3.456,7.717,7.718,7.717l0,0C214.754,1236.642,218.209,1233.187,218.209,1228.925L218.209,1228.925z"/>
	<path fill="#3D332A" d="M93.939,1018.156l-8.333,7l4.166,4.334c0,0,9.168,2,9.501,0s2.333-5.999,2.333-5.999L93.939,1018.156z"/>
	<polygon fill="#3E4229" points="26.587,832.135 47.087,811.635 69.254,813.302 79.587,824.635 98.194,832.135 	"/>
	<path fill="#3E4229" d="M33.783,814.103l6.403-8.801l-5.087-3.203c0,0-9.38,0.266-9.222,2.287s-0.82,6.385-0.82,6.385
		L33.783,814.103z"/>
	<polygon fill="#495434" points="385.678,821.954 374.973,833.093 363.397,832.187 358.001,826.029 348.285,821.954 	"/>
	<path fill="#35A056" d="M-30.351,443.435h44.156c-7.758,2.573-13.359,9.875-13.359,18.498c0,10.769,8.73,19.498,19.498,19.498
		h60.182c-7.078,2.444-12.172,9.148-12.172,17.059c0,9.973,8.086,18.059,18.059,18.059h55.376c9.975,0,18.061-8.086,18.061-18.059
		c0-7.91-5.094-14.614-12.174-17.059h13.66c10.77,0,19.5-8.729,19.5-19.498c0-10.77-8.73-19.5-19.5-19.5h-12.691
		c7.375-2.5,12.691-9.466,12.691-17.688c0-10.322-8.367-18.69-18.688-18.69H70.831c7.051-2.438,12.123-9.118,12.123-16.998
		c0-9.94-8.059-17.999-17.998-17.999H6.458c-9.939,0-17.998,8.059-18,17.999c0,7.88,5.072,14.56,12.123,16.998h-30.932
		c-10.322,0-18.689,8.368-18.689,18.69C-49.04,435.067-40.673,443.435-30.351,443.435z"/>
	<path fill="#39B763" d="M-74.025,503.458h44.156c-7.758,2.573-13.359,9.876-13.359,18.498c0,10.769,8.73,19.498,19.498,19.498
		h60.182c-7.078,2.444-12.172,9.148-12.172,17.059c0,9.974,8.086,18.059,18.059,18.059h55.377c9.975,0,18.061-8.085,18.061-18.059
		c0-7.91-5.094-14.614-12.174-17.059h13.66c10.77,0,19.5-8.729,19.5-19.498c0-10.77-8.73-19.499-19.5-19.499h-12.691
		c7.375-2.501,12.691-9.467,12.691-17.688c0-10.321-8.367-18.689-18.688-18.689H27.157c7.051-2.438,12.123-9.118,12.123-16.998
		c0-9.94-8.059-17.999-17.999-17.999h-58.497c-9.94,0-17.999,8.059-18,17.999c0,7.88,5.072,14.56,12.123,16.998h-30.932
		c-10.322,0-18.689,8.368-18.689,18.689S-84.347,503.458-74.025,503.458z"/>
	<path fill="#35A056" d="M244.951,434.717h44.156c-7.758,2.573-13.359,9.875-13.359,18.499c0,10.769,8.73,19.498,19.498,19.498
		h60.182c-7.078,2.444-12.172,9.148-12.172,17.059c0,9.973,8.086,18.059,18.059,18.059h55.377c9.975,0,18.061-8.086,18.061-18.059
		c0-7.91-5.094-14.614-12.174-17.059h13.66c10.77,0,19.5-8.729,19.5-19.498c0-10.77-8.73-19.5-19.5-19.5h-12.691
		c7.375-2.5,12.691-9.466,12.691-17.688c0-10.321-8.367-18.689-18.688-18.689h-71.418c7.051-2.438,12.123-9.118,12.123-16.998
		c0-9.94-8.059-17.999-17.998-17.999H281.76c-9.939,0-17.998,8.059-18,17.999c0,7.88,5.072,14.56,12.123,16.998h-30.932
		c-10.322,0-18.689,8.368-18.689,18.689S234.629,434.717,244.951,434.717z"/>
	<path fill="#39B763" d="M198.928,505.005h44.156c-7.758,2.573-13.359,9.875-13.359,18.498c0,10.769,8.73,19.498,19.498,19.498
		h60.182c-7.078,2.444-12.172,9.148-12.172,17.059c0,9.974,8.086,18.059,18.059,18.059h55.377c9.975,0,18.061-8.085,18.061-18.059
		c0-7.91-5.094-14.614-12.174-17.059h13.66c10.77,0,19.5-8.729,19.5-19.498c0-10.77-8.73-19.5-19.5-19.5h-12.691
		c7.375-2.5,12.691-9.466,12.691-17.688c0-10.321-8.367-18.689-18.688-18.689h-71.418c7.051-2.438,12.123-9.118,12.123-16.998
		c0-9.94-8.059-17.999-17.998-17.999h-58.498c-9.939,0-17.998,8.059-18,17.999c0,7.88,5.072,14.56,12.123,16.998h-30.932
		c-10.322,0-18.689,8.368-18.689,18.689S188.605,505.005,198.928,505.005z"/>
	<path fill="#39B763" d="M113.477,540.208h44.156c-7.758,2.573-13.359,9.875-13.359,18.498c0,10.769,8.73,19.498,19.498,19.498
		h60.182c-7.078,2.444-12.172,9.148-12.172,17.059c0,9.974,8.086,18.059,18.059,18.059h55.377c9.975,0,18.061-8.085,18.061-18.059
		c0-7.91-5.094-14.614-12.174-17.059h13.66c10.77,0,19.5-8.729,19.5-19.498c0-10.77-8.73-19.5-19.5-19.5h-12.691
		c7.375-2.5,12.691-9.466,12.691-17.688c0-10.321-8.367-18.689-18.688-18.689h-71.418c7.051-2.438,12.123-9.118,12.123-16.998
		c0-9.94-8.059-17.999-17.998-17.999h-58.498c-9.939,0-17.998,8.059-18,17.999c0,7.88,5.072,14.56,12.123,16.998h-30.932
		c-10.322,0-18.689,8.368-18.689,18.689S103.154,540.208,113.477,540.208z"/>
	<path fill="#6FC187" d="M170.311,558.186h-46.823c8.227,2.574,14.167,9.875,14.167,18.498c0,10.77-9.258,19.498-20.676,19.498
		H53.162c7.505,2.445,12.906,9.148,12.906,17.059c0,9.975-8.574,18.059-19.148,18.059h-58.722c-10.577,0-19.151-8.084-19.151-18.059
		c0-7.91,5.401-14.613,12.908-17.059h-14.484c-11.42,0-20.678-8.729-20.678-19.498s9.258-19.5,20.678-19.5h13.458
		c-7.821-2.5-13.458-9.465-13.458-17.688c0-10.32,8.872-18.689,19.815-18.689h75.731c-7.477-2.438-12.854-9.117-12.854-16.998
		c0-9.939,8.545-17.998,19.085-17.998h62.031c10.539,0,19.085,8.059,19.087,17.998c0,7.881-5.379,14.561-12.855,16.998h32.8
		c10.946,0,19.818,8.369,19.818,18.689C190.129,549.819,181.257,558.186,170.311,558.186z"/>
	<path fill="#35A056" d="M244.951,576.202h44.156c-7.758,2.574-13.359,9.875-13.359,18.498c0,10.77,8.73,19.498,19.498,19.498
		h60.182c-7.078,2.445-12.172,9.149-12.172,17.06c0,9.973,8.086,18.059,18.059,18.059h55.377c9.975,0,18.061-8.086,18.061-18.059
		c0-7.91-5.094-14.614-12.174-17.06h13.66c10.77,0,19.5-8.729,19.5-19.498s-8.73-19.5-19.5-19.5h-12.691
		c7.375-2.5,12.691-9.465,12.691-17.688c0-10.32-8.367-18.689-18.688-18.689h-71.418c7.051-2.438,12.123-9.117,12.123-16.998
		c0-9.939-8.059-17.998-17.998-17.998H281.76c-9.939,0-17.998,8.059-18,17.998c0,7.881,5.072,14.561,12.123,16.998h-30.932
		c-10.322,0-18.689,8.369-18.689,18.689C226.262,567.834,234.629,576.202,244.951,576.202z"/>
	<path fill="#35A056" d="M175.295,346.992"/>
	<rect x="1173.352" y="1037.304" fill="#3D332A" width="400" height="45"/>
	<rect x="1173.352" y="1082.304" fill="#54332E" width="400" height="45"/>
	<rect x="1173.352" y="1127.304" fill="#8C341C" width="400" height="141.499"/>
	<polygon fill="#3D332A" points="1480.112,1075.33 1489.779,1088.33 1513.112,1094.33 1520.445,1087.996 1529.445,1077.996 	"/>
	<path fill="#3D332A" d="M1526.778,1088.995l-8.333,7l4.166,4.334c0,0,9.168,2,9.501,0s2.333-5.999,2.333-5.999L1526.778,1088.995z"
		/>
	<polygon fill="#662A1D" points="1173.352,1127.304 1220.352,1113.848 1306.352,1070.296 1340.764,1062.828 1416.352,1062.828 
		1447.859,1070.296 1495.019,1102.976 1554.73,1123.662 1574.23,1123.662 1573.352,1235.22 1173.352,1235.22 	"/>
	<polyline fill="#8C341C" points="1218.646,1231.805 1239.693,1172.404 1252.352,1121.546 1340.764,1062.828 1356.648,1057.328 
		1399.352,1059.804 1416.352,1062.828 1475.852,1106.04 1480.114,1140.61 1526.447,1177.146 1529.447,1231.637 	"/>
	<polyline fill="#C1481E" points="1285.686,1234.432 1288.352,1174.355 1302.852,1128.914 1356.648,1057.328 1399.352,1059.804 
		1426.852,1096.766 1441.852,1130.135 1473.148,1183.086 1473.148,1233.244 	"/>
	<rect x="1488.369" y="558.555" fill="#4F390C" width="51.964" height="208.162"/>
	<rect x="1418.511" y="558.555" fill="#332917" width="79.104" height="208.162"/>
	<rect x="1340.354" y="558.555" fill="#3F3520" width="85.045" height="208.162"/>
	<rect x="1282.353" y="558.555" fill="#56411D" width="85.045" height="208.162"/>
	<rect x="1202.672" y="558.555" fill="#3F3520" width="85.045" height="208.162"/>
	<path fill="#237C16" d="M1286.356,685.312c-2.761,0-5-2.238-5-5v-95.615c0-2.762,2.239-5,5-5s5,2.238,5,5v95.615
		C1291.356,683.074,1289.117,685.312,1286.356,685.312z"/>
	<rect x="1534.773" y="586.411" fill="#966905" width="38.577" height="180.307"/>
	<rect x="1239.482" y="592.146" fill="#7A520A" width="18.238" height="56.491"/>
	<rect x="1173.352" y="558.555" fill="#966905" width="49.262" height="208.162"/>
	<path fill="#966905" d="M1256.639,766.718h18.319c0-10.118-8.202-18.319-18.319-18.319V766.718z"/>
	<path fill="#966905" d="M1222.613,731.761v16.638h16.877C1230.609,747.612,1223.518,740.608,1222.613,731.761z"/>
	<rect x="1222.613" y="748.399" fill="#966905" width="34.025" height="18.319"/>
	<path fill="#966905" d="M1535.772,748.399v-16.638c-0.904,8.847-8.004,15.851-16.893,16.638h-17.029
		c-10.126,0-18.337,8.201-18.337,18.319h18.337h34.058v-18.319H1535.772z"/>
	<path fill="#7A520A" d="M1239.401,648.637v18.319c10.118,0,18.319-8.202,18.319-18.319H1239.401z"/>
	<rect x="1221.531" y="657.949" fill="#895D06" width="18.238" height="24.703"/>
	<path fill="#895D06" d="M1239.852,657.95V639.63c-10.119,0-18.32,8.202-18.32,18.319H1239.852z"/>
	<path fill="#895D06" d="M1221.491,681.812v18.319c10.118,0,18.319-8.202,18.319-18.319H1221.491z"/>
	<rect x="1516.253" y="611.842" fill="#845B08" width="18.238" height="56.491"/>
	<path fill="#845B08" d="M1534.572,668.333v18.319c-10.118,0-18.319-8.202-18.319-18.319H1534.572z"/>
	<path fill="#15560E" d="M1302.357,649.304c-2.762,0-5-2.238-5-5v-92.667c0-2.762,2.238-5,5-5s5,2.238,5,5v92.667
		C1307.357,647.066,1305.119,649.304,1302.357,649.304z"/>
	<path fill="#15560E" d="M1425.246,633.713c-2.762,0-5-2.238-5-5v-42.107c0-2.762,2.238-5,5-5s5,2.238,5,5v42.107
		C1430.246,631.475,1428.008,633.713,1425.246,633.713z"/>
	<path fill="#237C16" d="M1458.271,662.95c-2.762,0-5-2.238-5-5v-61.336c0-2.762,2.238-5,5-5s5,2.238,5,5v61.336
		C1463.271,660.711,1461.032,662.95,1458.271,662.95z"/>
	<path fill="#237C16" d="M1474.284,691.653c-2.762,0-5-2.238-5-5V585.606c0-2.762,2.238-5,5-5s5,2.238,5,5v101.047
		C1479.284,689.415,1477.046,691.653,1474.284,691.653z"/>
	<path fill="#15560E" d="M1495.301,649.304c-2.762,0-5-2.238-5-5v-37.683c0-2.762,2.238-5,5-5s5,2.238,5,5v37.683
		C1500.301,647.066,1498.062,649.304,1495.301,649.304z"/>
	<rect x="1173.352" y="766.717" fill="#4E663E" width="400" height="27.585"/>
	<rect x="1274.958" y="766.717" fill="#497C66" width="208.555" height="27.585"/>
	<rect x="1173.352" y="794.302" fill="#495434" width="400" height="27.585"/>
	<rect x="1302.61" y="794.302" fill="#3F6B57" width="153.249" height="27.585"/>
	<path fill="#3F6B57" d="M1455.86,794.302v27.652c15.273,0,27.652-12.381,27.652-27.652H1455.86z"/>
	<path fill="#3F6B57" d="M1302.61,794.302h-27.652c0,15.273,12.381,27.652,27.652,27.652V794.302z"/>
	<rect x="1173.352" y="821.887" fill="#3E4229" width="400" height="41.991"/>
	<rect x="1173.352" y="863.878" fill="#2D2B21" width="400" height="173.426"/>
	<polygon fill="#514E42" points="1248.02,842.77 1201.809,857.017 1186.527,930.741 1212.979,993.296 1257.042,1002.232 
		1494.441,1005.867 1547.041,986.707 1561.934,909.372 1519.794,850.314 1392.451,832.441 	"/>
	<polygon fill="#7F7A63" points="1292.383,860.545 1225.592,885.243 1199.938,925.857 1212.979,993.296 1257.042,1002.232 
		1494.441,1005.867 1547.041,986.707 1535.853,907.024 1473.613,866.689 1398.771,858.87 	"/>
	<polygon fill="#9B9478" points="1296.562,898.524 1241.031,919.153 1212.979,949.909 1212.979,993.254 1257.042,999.443 
		1494.441,1001.96 1547.041,988.69 1528.906,937.062 1471.938,906.902 1394.862,889.03 	"/>
	<polygon fill="#6D6855" points="1477.348,976.868 1366.157,969.421 1263.62,974.678 1212.979,993.296 1257.042,1002.232 
		1452.203,1005.866 1497.071,1005.867 1547.041,988.69 	"/>
	<polygon fill="#514E42" points="1476.43,862.478 1470.385,872.774 1467.684,911.635 1460.465,897.201 1460.99,880.001 
		1458.307,870.356 1455.629,862.09 	"/>
	<polygon fill="#2D2B21" points="1322.854,1023.705 1331.604,1008.801 1336.242,971.157 1341.098,992.008 1345.203,998.339 
		1349.088,1012.302 1352.963,1024.265 	"/>
	<polygon fill="#514E42" points="1349.9,1003.758 1358.652,988.855 1368.212,960.475 1373.49,971.157 1376.244,987.644 
		1380.011,995.893 1380.011,1004.319 	"/>
	<polygon fill="#2D2B21" points="1337.908,1004.876 1346.66,989.973 1351.297,952.329 1357.44,946.613 1360.258,979.511 
		1364.143,993.474 1368.019,1005.437 	"/>
	<polygon fill="#2D2B21" points="1356.648,1013.75 1387.683,994.3 1404.931,965.509 1404.931,919.155 1398.43,901.33 
		1404.931,868.021 1375.511,839.182 1361.376,834.664 1392.451,832.441 1461.776,842.378 1441.488,867.208 1418.935,904.579 
		1418.935,919.155 1413.703,950.59 1423.852,982.399 1452.852,997.712 1516.852,1005.869 	"/>
	<polygon fill="#3E4229" points="1361.376,834.664 1405.474,850.5 1429.544,852.315 1466.029,842.768 1392.451,832.441 	"/>
	<polygon fill="#514E42" points="1340.763,852.703 1334.718,862.999 1331.106,901.456 1322.854,907.635 1319.962,872.969 
		1304.351,852.315 1319.962,852.315 	"/>
	<polygon fill="#7F7A63" points="1316.017,900.505 1317.933,924.299 1314.685,928.485 1308.013,907.637 1308.538,890.438 
		1305.854,880.792 1317.933,883.299 	"/>
	<polygon fill="#3D332A" points="1203.352,1040.828 1223.852,1020.328 1246.018,1021.995 1256.352,1033.328 1274.958,1040.828 	"/>
	<rect x="1173.354" y="1228.772" fill="#B53508" width="400.877" height="47.522"/>
	<rect x="1173.354" y="1276.294" fill="#D86609" width="400.877" height="47.522"/>
	<rect x="1173.352" y="1323.816" fill="#D69C0B" width="400.877" height="47.108"/>
	<path fill="#B53508" d="M1234.539,1229.44c0,3.817-3.095,6.912-6.912,6.912l0,0c-3.816,0-6.912-3.095-6.912-6.912v-33.338
		c0-3.817,3.096-6.912,6.912-6.912l0,0c3.817,0,6.912,3.095,6.912,6.912V1229.44z"/>
	<path fill="#B53508" d="M1248.117,1236.341c0,3.817-3.095,6.912-6.912,6.912l0,0c-3.816,0-6.912-3.095-6.912-6.912v-33.338
		c0-3.817,3.096-6.912,6.912-6.912l0,0c3.817,0,6.912,3.095,6.912,6.912V1236.341z"/>
	<path fill="#B53508" d="M1234.788,1171.046c0-3.955-3.206-7.161-7.161-7.161l0,0c-3.955,0-7.16,3.206-7.16,7.161l0,0
		c0,3.954,3.205,7.161,7.16,7.161l0,0C1231.582,1178.208,1234.788,1175,1234.788,1171.046L1234.788,1171.046z"/>
	<path fill="#B53508" d="M1221.073,1253.202c0,3.817-3.095,6.912-6.911,6.912l0,0c-3.817,0-6.912-3.095-6.912-6.912v-33.338
		c0-3.817,3.095-6.912,6.912-6.912l0,0c3.816,0,6.911,3.095,6.911,6.912V1253.202z"/>
	<path fill="#B53508" d="M1361.494,1255.236c0,4.113-3.335,7.448-7.449,7.448l0,0c-4.113,0-7.447-3.335-7.447-7.448v-35.928
		c0-4.114,3.334-7.449,7.447-7.449l0,0c4.114,0,7.449,3.335,7.449,7.449V1255.236z"/>
	<path fill="#B53508" d="M1376.128,1262.672c0,4.114-3.335,7.449-7.45,7.449l0,0c-4.113,0-7.447-3.335-7.447-7.449v-35.927
		c0-4.114,3.334-7.449,7.447-7.449l0,0c4.115,0,7.45,3.335,7.45,7.449V1262.672z"/>
	<path fill="#B53508" d="M1361.763,1192.306c0-4.262-3.455-7.718-7.718-7.718l0,0c-4.262,0-7.716,3.456-7.716,7.718l0,0
		c0,4.262,3.454,7.717,7.716,7.717l0,0C1358.308,1200.023,1361.763,1196.568,1361.763,1192.306L1361.763,1192.306z"/>
	<path fill="#D86609" d="M1447.705,1275.365c0-4.707-3.815-8.523-8.522-8.523l0,0c-4.706,0-8.522,3.816-8.522,8.523l0,0
		c0,4.706,3.816,8.522,8.522,8.522l0,0C1443.89,1283.887,1447.705,1280.071,1447.705,1275.365L1447.705,1275.365z"/>
	<path fill="#D86609" d="M1447.705,1249.215c0-4.707-3.815-8.522-8.522-8.522l0,0c-4.706,0-8.522,3.815-8.522,8.522l0,0
		c0,4.706,3.816,8.522,8.522,8.522l0,0C1443.89,1257.738,1447.705,1253.921,1447.705,1249.215L1447.705,1249.215z"/>
	<path fill="#B53508" d="M1430.271,1275.365c0-4.707-3.816-8.523-8.522-8.523l0,0c-4.706,0-8.522,3.816-8.522,8.523l0,0
		c0,4.706,3.816,8.522,8.522,8.522l0,0C1426.455,1283.887,1430.271,1280.071,1430.271,1275.365L1430.271,1275.365z"/>
	<path fill="#D86609" d="M1298.461,1275.365c0-4.707-3.816-8.523-8.522-8.523l0,0c-4.706,0-8.522,3.816-8.522,8.523l0,0
		c0,4.706,3.816,8.522,8.522,8.522l0,0C1294.645,1283.887,1298.461,1280.071,1298.461,1275.365L1298.461,1275.365z"/>
	<path fill="#B53508" d="M1281.027,1275.365c0-4.707-3.816-8.523-8.523-8.523l0,0c-4.705,0-8.521,3.816-8.521,8.523l0,0
		c0,4.706,3.816,8.522,8.521,8.522l0,0C1277.211,1283.887,1281.027,1280.071,1281.027,1275.365L1281.027,1275.365z"/>
	<path fill="#B53508" d="M1315.895,1275.365c0-4.707-3.816-8.523-8.522-8.523l0,0c-4.706,0-8.522,3.816-8.522,8.523l0,0
		c0,4.706,3.816,8.522,8.522,8.522l0,0C1312.078,1283.887,1315.895,1280.071,1315.895,1275.365L1315.895,1275.365z"/>
	<path fill="#B53508" d="M1487.504,1261.117c0,4.182-3.39,7.571-7.571,7.571l0,0c-4.18,0-7.569-3.39-7.569-7.571v-36.518
		c0-4.182,3.39-7.571,7.569-7.571l0,0c4.182,0,7.571,3.39,7.571,7.571V1261.117z"/>
	<path fill="#B53508" d="M1502.378,1235.251c0,4.181-3.39,7.57-7.571,7.57l0,0c-4.182,0-7.571-3.39-7.571-7.57v-36.518
		c0-4.182,3.39-7.571,7.571-7.571l0,0c4.182,0,7.571,3.39,7.571,7.571V1235.251z"/>
	<path fill="#B53508" d="M1502.65,1165.513c0-4.332-3.512-7.844-7.844-7.844l0,0c-4.332,0-7.844,3.512-7.844,7.844l0,0
		c0,4.332,3.512,7.844,7.844,7.844l0,0C1499.139,1173.357,1502.65,1169.845,1502.65,1165.513L1502.65,1165.513z"/>
	<path fill="#C1481E" d="M1472.089,1228.73c0-4.332-3.512-7.844-7.844-7.844l0,0c-4.331,0-7.844,3.512-7.844,7.844l0,0
		c0,4.332,3.513,7.844,7.844,7.844l0,0C1468.577,1236.574,1472.089,1233.062,1472.089,1228.73L1472.089,1228.73z"/>
	<path fill="#C1481E" d="M1391.561,1228.925c0-4.262-3.455-7.718-7.717-7.718l0,0c-4.262,0-7.718,3.456-7.718,7.718l0,0
		c0,4.262,3.456,7.717,7.718,7.717l0,0C1388.105,1236.642,1391.561,1233.187,1391.561,1228.925L1391.561,1228.925z"/>
	<path fill="#3D332A" d="M1267.291,1018.156l-8.333,7l4.166,4.334c0,0,9.168,2,9.501,0s2.333-5.999,2.333-5.999L1267.291,1018.156z"
		/>
	<polygon fill="#3E4229" points="1199.939,832.135 1220.439,811.635 1242.605,813.302 1252.939,824.635 1271.545,832.135 	"/>
	<path fill="#3E4229" d="M1207.135,814.103l6.402-8.801l-5.086-3.203c0,0-9.381,0.266-9.223,2.287s-0.82,6.385-0.82,6.385
		L1207.135,814.103z"/>
	<polygon fill="#495434" points="1559.029,821.954 1548.324,833.093 1536.749,832.187 1531.353,826.029 1521.637,821.954 	"/>
	<path fill="#39B763" d="M1099.326,503.458h44.156c-7.758,2.573-13.359,9.876-13.359,18.498c0,10.769,8.73,19.498,19.498,19.498
		h60.182c-7.078,2.444-12.172,9.148-12.172,17.059c0,9.974,8.086,18.059,18.059,18.059h55.377c9.975,0,18.061-8.085,18.061-18.059
		c0-7.91-5.094-14.614-12.174-17.059h13.66c10.77,0,19.5-8.729,19.5-19.498c0-10.77-8.73-19.499-19.5-19.499h-12.691
		c7.375-2.501,12.691-9.467,12.691-17.688c0-10.321-8.367-18.689-18.688-18.689h-71.418c7.051-2.438,12.123-9.118,12.123-16.998
		c0-9.94-8.059-17.999-17.998-17.999h-58.498c-9.939,0-17.998,8.059-18,17.999c0,7.88,5.072,14.56,12.123,16.998h-30.932
		c-10.322,0-18.689,8.368-18.689,18.689S1089.004,503.458,1099.326,503.458z"/>
	<path fill="#39B763" d="M1372.279,505.005h44.156c-7.758,2.573-13.359,9.875-13.359,18.498c0,10.769,8.73,19.498,19.498,19.498
		h60.182c-7.078,2.444-12.172,9.148-12.172,17.059c0,9.974,8.086,18.059,18.059,18.059h55.377c9.975,0,18.061-8.085,18.061-18.059
		c0-7.91-5.094-14.614-12.174-17.059h13.66c10.77,0,19.5-8.729,19.5-19.498c0-10.77-8.73-19.5-19.5-19.5h-12.691
		c7.375-2.5,12.691-9.466,12.691-17.688c0-10.321-8.367-18.689-18.688-18.689h-71.418c7.051-2.438,12.123-9.118,12.123-16.998
		c0-9.94-8.059-17.999-17.998-17.999h-58.498c-9.939,0-17.998,8.059-18,17.999c0,7.88,5.072,14.56,12.123,16.998h-30.932
		c-10.322,0-18.689,8.368-18.689,18.689S1361.957,505.005,1372.279,505.005z"/>
	<path fill="#39B763" d="M1286.828,540.208h44.156c-7.758,2.573-13.359,9.875-13.359,18.498c0,10.769,8.73,19.498,19.498,19.498
		h60.182c-7.078,2.444-12.172,9.148-12.172,17.059c0,9.974,8.086,18.059,18.059,18.059h55.377c9.975,0,18.061-8.085,18.061-18.059
		c0-7.91-5.094-14.614-12.174-17.059h13.66c10.77,0,19.5-8.729,19.5-19.498c0-10.77-8.73-19.5-19.5-19.5h-12.691
		c7.375-2.5,12.691-9.466,12.691-17.688c0-10.321-8.367-18.689-18.688-18.689h-71.418c7.051-2.438,12.123-9.118,12.123-16.998
		c0-9.94-8.059-17.999-17.998-17.999h-58.498c-9.939,0-17.998,8.059-18,17.999c0,7.88,5.072,14.56,12.123,16.998h-30.932
		c-10.322,0-18.689,8.368-18.689,18.689S1276.506,540.208,1286.828,540.208z"/>
	<path fill="#6FC187" d="M1343.662,558.186h-46.823c8.227,2.574,14.167,9.875,14.167,18.498c0,10.77-9.258,19.498-20.676,19.498
		h-63.816c7.505,2.445,12.906,9.148,12.906,17.059c0,9.975-8.574,18.059-19.148,18.059h-58.722
		c-10.577,0-19.151-8.084-19.151-18.059c0-7.91,5.401-14.613,12.908-17.059h-14.484c-11.42,0-20.678-8.729-20.678-19.498
		s9.258-19.5,20.678-19.5h13.458c-7.821-2.5-13.458-9.465-13.458-17.688c0-10.32,8.872-18.689,19.815-18.689h75.731
		c-7.477-2.438-12.854-9.117-12.854-16.998c0-9.939,8.545-17.998,19.085-17.998h62.031c10.539,0,19.085,8.059,19.087,17.998
		c0,7.881-5.379,14.561-12.855,16.998h32.8c10.946,0,19.818,8.369,19.818,18.689C1363.48,549.819,1354.608,558.186,1343.662,558.186
		z"/>
	<path fill="#35A056" d="M1418.303,576.202h44.156c-7.758,2.574-13.359,9.875-13.359,18.498c0,10.77,8.73,19.498,19.498,19.498
		h60.182c-7.078,2.445-12.172,9.149-12.172,17.06c0,9.973,8.086,18.059,18.059,18.059h55.377c9.975,0,18.061-8.086,18.061-18.059
		c0-7.91-5.094-14.614-12.174-17.06h13.66c10.77,0,19.5-8.729,19.5-19.498s-8.73-19.5-19.5-19.5h-12.691
		c7.375-2.5,12.691-9.465,12.691-17.688c0-10.32-8.367-18.689-18.688-18.689h-71.418c7.051-2.438,12.123-9.117,12.123-16.998
		c0-9.939-8.059-17.998-17.998-17.998h-58.498c-9.939,0-17.998,8.059-18,17.998c0,7.881,5.072,14.561,12.123,16.998h-30.932
		c-10.322,0-18.689,8.369-18.689,18.689C1399.613,567.834,1407.98,576.202,1418.303,576.202z"/>
</g>
<g id="Layer_3">
</g>
<g id="numbers" display="none">
	
		<circle display="inline" fill="none" stroke="#FFFDFD" stroke-width="10" stroke-miterlimit="10" cx="204.102" cy="166.66" r="63.953"/>
	<rect x="142.585" y="128.354" display="inline" fill="none" width="129.31" height="94.629"/>
	
		<text transform="matrix(1 0 0 1 187.8989 202.5532)" display="inline" fill="#FFFDFD" font-family="'Montserrat-Regular'" font-size="100">1</text>
	
		<circle display="inline" fill="none" stroke="#FFFDFD" stroke-width="10" stroke-miterlimit="10" cx="204.102" cy="359.811" r="63.953"/>
	<rect x="142.585" y="321.505" display="inline" fill="none" width="129.31" height="94.629"/>
	
		<text transform="matrix(1 0 0 1 177.8491 395.708)" display="inline" fill="#FFFDFD" font-family="'Montserrat-Regular'" font-size="100">2</text>
	
		<circle display="inline" fill="none" stroke="#FFFDFD" stroke-width="10" stroke-miterlimit="10" cx="204.102" cy="556.964" r="63.953"/>
	<rect x="142.585" y="518.659" display="inline" fill="none" width="129.31" height="94.629"/>
	
		<text transform="matrix(1 0 0 1 180.2993 592.8657)" display="inline" fill="#FFFDFD" font-family="'Montserrat-Regular'" font-size="100">3</text>
	
		<circle display="inline" fill="none" stroke="#FFFDFD" stroke-width="10" stroke-miterlimit="10" cx="204.102" cy="757.121" r="63.953"/>
	<rect x="142.585" y="718.815" display="inline" fill="none" width="129.31" height="94.629"/>
	
		<text transform="matrix(1 0 0 1 177.2993 793.0249)" display="inline" fill="#FFFDFD" font-family="'Montserrat-Regular'" font-size="100">4</text>
	
		<circle display="inline" fill="none" stroke="#FFFDFD" stroke-width="10" stroke-miterlimit="10" cx="204.102" cy="987.3" r="63.953"/>
	<rect x="142.585" y="948.995" display="inline" fill="none" width="129.31" height="94.629"/>
	
		<text transform="matrix(1 0 0 1 178.3989 1023.2095)" display="inline" fill="#FFFDFD" font-family="'Montserrat-Regular'" font-size="100">5</text>
	
		<circle display="inline" fill="none" stroke="#FFFDFD" stroke-width="10" stroke-miterlimit="10" cx="204.102" cy="1217.48" r="63.953"/>
	<rect x="139.582" y="1179.174" display="inline" fill="none" width="129.31" height="94.629"/>
	
		<text transform="matrix(1 0 0 1 173.4971 1253.3931)" display="inline" fill="#FFFDFD" font-family="'Montserrat-Regular'" font-size="100">6</text>
</g>
<g id="Layer_6">
	<polygon opacity="0.12" fill="#FFD400" points="88,359.375 158.878,355.777 164.667,299.042 206.805,284.255 241.333,353.042 
		200,449.042 	"/>
</g>
<g id="Layer_4">
	<path fill="#FFE000" d="M932.387,17.372c0,0,10.429-3.292,16.551-1.829s9.414,7.68,9.414,7.68s5.751-2.926,11.286,0
		s15.043,6.583,20.895,16.457c3.657-0.731,10.272-1.483,10.272-1.483l-9.175-15.705c0,0-3.351-6.948,5.821-12.068
		s11.894-7.314,11.894-7.314s5.19-5.485,15.862,0s44.081,19.017,44.081,19.017s36.604-5.367,53.992,6.704
		c10.605,1.341,19.665,1.666,24.868,9.366s3.657,19.209-1.463,22.78s-13.499,17.833-66.541,30.998
		c-5.867,8.045-34.607,39.863-34.607,39.863s-2.402,6.281-16.818,6.281s-24.401-1.529-24.401-1.529s-9.774-0.731-7.025-9.508
		s6.47-26.628,6.47-26.628h-28.954c0,0-5.12,10.171-14.628,10.537s-18.49-0.366-18.49-0.366s-10.349,0-7.083-7.68
		s4.271-17.553,4.271-17.553S921.416,42.147,923.244,33.6S922.147,21.395,932.387,17.372z"/>
	<g>
		<polygon fill="#51725B" points="107.74,366.723 163.249,364.477 210.478,330.231 222.258,355.531 207.11,372.337 153.632,378.754 
					"/>
		<polygon fill="#1E3825" points="210.478,330.231 196.442,296.546 170.057,305.528 163.249,364.477 207.112,346.992 		"/>
		<polygon fill="#36493A" points="107.74,366.723 192.643,428.133 192.643,428.133 153.632,378.754 		"/>
		<polygon fill="#49634E" points="192.643,428.133 222.258,355.531 207.11,372.337 		"/>
		<polygon fill="#435B49" points="153.632,378.754 207.11,372.337 192.643,428.133 		"/>
		<polygon fill="#26442D" points="186.863,326.356 210.478,330.231 196.442,296.546 170.057,305.528 168.669,316.954 		"/>
	</g>
	<g>
		<path fill="#F4F4F4" d="M116.453,86.041c0,0,15.731-11.849,40.462-7.562c-15.387-23.667-31.826-26.75-31.826-26.75l-18.979,3.359
			L116.453,86.041z"/>
		<path fill="#F4F4F4" d="M190.655,83.499c0,0,34.445,9.661,70.208-15.702c-22.059-18.932-59.897-34.017-73.106-38.701
			c-4.635-1.643-7.906,0.203-7.906,0.204c0,0-11.172,6.325-14.381,8.157c-6.902,3.942-2.595,9.312-2.595,9.312L190.655,83.499z"/>
		<path fill="#EDEDED" d="M88.128,54.296C87.95,40.95,108.662,44.03,108.662,44.03l32.166,32.342c0,0,71.293-21.93,104.898-24.933
			c36.956-3.302,50.791,9.234,50.791,9.234s19.272-2.375,22.146,9.945c2.876,12.32-9.077,22.267-57.801,36.039
			s-148.95,16.344-148.95,16.344s-1.051-2.027-2.71-5.445C103.019,104.817,88.375,72.756,88.128,54.296z"/>
		<path fill="#B5C4C6" d="M318.8,76.415c0,0-95.151,41.897-210.651,38.969c3.765,7.617,3.765,7.617,3.765,7.617
			s28.746,2.945,134.323-10.698C256.847,109.441,314.878,95.454,318.8,76.415"/>
		<path fill="#F4F4F4" d="M106.095,108.559c0,0,15.731-11.849,40.462-7.561c-8.636,16.608-19.232,29.273-19.232,29.273
			s-3.15,4.789-8.541,4.789c-5.39,0-7.96,0-12.321,0c-8.041,0-5.657-5.499-5.657-5.499L106.095,108.559z"/>
		<path fill="#F4F4F4" d="M180.337,111.008c0,0,27.383-20.624,70.427-13.16c-15.03,28.908-44.813,61.531-44.813,61.531
			s-2.967,5.027-10.144,4.597s-16.338-0.922-21.413-1.284c-9.223-0.658-5.123-7.994-5.123-7.994L180.337,111.008z"/>
		<circle opacity="0.2" fill="#7F7F7F" cx="254.639" cy="70.399" r="3.793"/>
		<circle opacity="0.2" fill="#7F7F7F" cx="242.915" cy="73.279" r="3.792"/>
		<circle opacity="0.2" fill="#7F7F7F" cx="230.417" cy="76.013" r="3.792"/>
		<circle opacity="0.2" fill="#7F7F7F" cx="217.238" cy="78.686" r="3.793"/>
		<circle opacity="0.2" fill="#7F7F7F" cx="205.1" cy="80.679" r="3.792"/>
		<circle opacity="0.2" fill="#7F7F7F" cx="191.52" cy="83.688" r="3.792"/>
		<circle opacity="0.2" fill="#7F7F7F" cx="178.185" cy="86.06" r="3.793"/>
		<circle opacity="0.2" fill="#7F7F7F" cx="165.169" cy="88.391" r="3.793"/>
		<path fill="#677C89" d="M277.347,52.768c-0.327,0.228-5.272,3.754-9.38,5.465c-4.105,1.711,4.106,9.219,5.817,8.374
			c2.729-0.461,16.103-4.58,20.146-7.746C288.26,54.959,277.347,52.768,277.347,52.768"/>
		<g>
			<path fill="#3D4D59" d="M103.029,65.23c-1.028,0.326-2.35-0.085-3.75-0.788l-2.895-1.421l1.347,4.25l-1.81,0.574l-2.238-7.061
				l1.481-0.469l4.773,2.304c0.79,0.397,1.592,0.597,2.058,0.448c0.603-0.191,0.812-0.77,0.56-1.565
				c-0.251-0.795-1.025-1.62-2.036-2.235l1.353-1.35c1.26,0.883,2.199,1.989,2.62,3.318
				C105.088,63.114,104.537,64.752,103.029,65.23z"/>
			<path fill="#3D4D59" d="M97.902,70.712c-0.631,0.201-1.236-0.091-1.431-0.708c-0.191-0.603,0.131-1.202,0.762-1.403
				c0.644-0.205,1.227,0.108,1.417,0.712C98.845,69.93,98.546,70.508,97.902,70.712z"/>
			<path fill="#3D4D59" d="M104.765,79.035c-3.139,0.995-5.354,0.052-6.206-2.634c-0.861-2.715,0.411-4.747,3.551-5.743
				c3.125-0.991,5.322-0.058,6.182,2.657C109.144,76.002,107.89,78.043,104.765,79.035z M102.813,72.88
				c-2.262,0.717-3.026,1.638-2.596,2.995c0.426,1.343,1.581,1.656,3.843,0.939c2.248-0.713,2.998-1.63,2.572-2.973
				C106.203,72.484,105.062,72.167,102.813,72.88z"/>
			<path fill="#3D4D59" d="M107.8,88.612c-3.139,0.995-5.354,0.052-6.206-2.634c-0.861-2.715,0.411-4.747,3.55-5.743
				c3.126-0.991,5.322-0.058,6.183,2.656C112.18,85.579,110.926,87.621,107.8,88.612z M105.85,82.457
				c-2.262,0.717-3.026,1.638-2.596,2.995c0.426,1.343,1.581,1.656,3.843,0.939c2.248-0.713,2.998-1.629,2.572-2.973
				C109.239,82.061,108.098,81.745,105.85,82.457z"/>
			<path fill="#3D4D59" d="M104.072,91.221l1.851,0.319c-0.215,0.701-0.2,1.511,0.035,2.252c0.522,1.645,1.853,2.083,3.539,1.503
				c-0.847-0.245-1.532-0.933-1.884-2.042c-0.604-1.906,0.256-3.476,2.12-4.066c2.029-0.644,3.729,0.341,4.403,2.466
				c0.8,2.522-0.505,4.641-3.453,5.575c-3.057,0.969-5.584-0.102-6.422-2.747C103.934,93.453,103.857,92.165,104.072,91.221z
				 M111.415,94.4c0.745-0.223,1.293-0.969,0.941-2.08c-0.309-0.973-1.038-1.421-1.999-1.116c-0.89,0.282-1.247,1.014-0.938,1.987
				C109.757,94.262,110.597,94.674,111.415,94.4z"/>
		</g>
	</g>
	<g>
		<path fill="#F4F4F4" d="M703.755,59.643c0,0,14.567-10.973,37.469-7.002c-14.249-21.917-29.472-24.771-29.472-24.771
			l-17.575,3.111L703.755,59.643z"/>
		<path fill="#F4F4F4" d="M772.469,57.289c0,0,31.897,8.946,65.015-14.541c-20.427-17.532-55.467-31.501-67.699-35.838
			c-4.292-1.521-7.321,0.188-7.321,0.188c0,0-10.346,5.857-13.317,7.554c-6.392,3.651-2.402,8.624-2.402,8.624L772.469,57.289z"/>
		<path fill="#EDEDED" d="M677.525,30.247c-0.166-12.36,19.015-9.507,19.015-9.507l29.786,29.95c0,0,66.021-20.308,97.141-23.089
			c34.223-3.058,47.034,8.551,47.034,8.551s17.847-2.2,20.508,9.209c2.663,11.409-8.405,20.62-53.525,33.374
			S699.551,93.869,699.551,93.869s-0.974-1.877-2.51-5.042C691.314,77.03,677.753,47.34,677.525,30.247z"/>
		<path fill="#B5C4C6" d="M891.135,50.729c0,0-88.113,38.798-195.07,36.086c3.486,7.054,3.486,7.054,3.486,7.054
			s26.619,2.727,124.388-9.906C833.764,81.312,887.503,68.359,891.135,50.729"/>
		<path fill="#F4F4F4" d="M694.163,80.495c0,0,14.567-10.973,37.47-7.002c-7.997,15.38-17.811,27.108-17.811,27.108
			s-2.917,4.435-7.909,4.435c-4.991,0-7.371,0-11.41,0c-7.446,0-5.237-5.092-5.237-5.092L694.163,80.495z"/>
		<path fill="#F4F4F4" d="M762.913,82.763c0,0,25.357-19.098,65.218-12.187c-13.919,26.77-41.499,56.98-41.499,56.98
			s-2.747,4.655-9.394,4.257c-6.646-0.399-15.129-0.854-19.829-1.189c-8.54-0.609-4.744-7.403-4.744-7.403L762.913,82.763z"/>
		<circle opacity="0.2" fill="#7F7F7F" cx="831.72" cy="45.158" r="3.513"/>
		<circle opacity="0.2" fill="#7F7F7F" cx="820.862" cy="47.825" r="3.512"/>
		<circle opacity="0.2" fill="#7F7F7F" cx="809.29" cy="50.356" r="3.512"/>
		<circle opacity="0.2" fill="#7F7F7F" cx="797.085" cy="52.832" r="3.513"/>
		<circle opacity="0.2" fill="#7F7F7F" cx="785.845" cy="54.678" r="3.512"/>
		<circle opacity="0.2" fill="#7F7F7F" cx="773.269" cy="57.464" r="3.512"/>
		<circle opacity="0.2" fill="#7F7F7F" cx="760.92" cy="59.661" r="3.513"/>
		<circle opacity="0.2" fill="#7F7F7F" cx="748.867" cy="61.819" r="3.513"/>
		<path fill="#677C89" d="M852.748,28.831c-0.304,0.211-4.883,3.477-8.687,5.061c-3.802,1.584,3.803,8.537,5.388,7.754
			c2.526-0.427,14.911-4.241,18.656-7.173C862.854,30.86,852.748,28.831,852.748,28.831"/>
		<g>
			<path fill="#3D4D59" d="M691.323,40.372c-0.953,0.302-2.176-0.079-3.473-0.729l-2.68-1.316l1.247,3.936l-1.676,0.531
				l-2.073-6.538l1.371-0.435l4.421,2.134c0.732,0.368,1.474,0.552,1.906,0.415c0.559-0.177,0.752-0.712,0.518-1.449
				c-0.232-0.736-0.949-1.5-1.886-2.07l1.254-1.25c1.167,0.817,2.036,1.842,2.426,3.073
				C693.229,38.412,692.72,39.929,691.323,40.372z"/>
			<path fill="#3D4D59" d="M686.576,45.448c-0.585,0.186-1.146-0.084-1.326-0.656c-0.177-0.558,0.121-1.113,0.705-1.299
				c0.598-0.189,1.137,0.1,1.313,0.659C687.449,44.724,687.173,45.259,686.576,45.448z"/>
			<path fill="#3D4D59" d="M692.931,53.155c-2.907,0.921-4.959,0.048-5.747-2.439c-0.797-2.514,0.382-4.396,3.288-5.318
				c2.894-0.917,4.929-0.054,5.726,2.46C696.985,50.347,695.825,52.237,692.931,53.155z M691.124,47.456
				c-2.096,0.664-2.803,1.517-2.404,2.773c0.396,1.244,1.465,1.534,3.559,0.87c2.082-0.66,2.776-1.509,2.382-2.753
				C694.263,47.089,693.206,46.796,691.124,47.456z"/>
			<path fill="#3D4D59" d="M695.742,62.024c-2.907,0.921-4.958,0.048-5.747-2.439c-0.797-2.514,0.381-4.396,3.287-5.318
				c2.896-0.917,4.929-0.053,5.727,2.46C699.797,59.215,698.636,61.106,695.742,62.024z M693.936,56.324
				c-2.095,0.664-2.802,1.517-2.404,2.773c0.395,1.244,1.465,1.534,3.559,0.87c2.082-0.66,2.775-1.509,2.382-2.753
				C697.073,55.958,696.018,55.665,693.936,56.324z"/>
			<path fill="#3D4D59" d="M692.289,64.44l1.713,0.295c-0.198,0.649-0.185,1.399,0.033,2.085c0.482,1.523,1.716,1.929,3.277,1.392
				c-0.784-0.227-1.419-0.863-1.746-1.891c-0.559-1.765,0.238-3.219,1.965-3.766c1.879-0.596,3.452,0.316,4.076,2.284
				c0.741,2.336-0.468,4.297-3.197,5.163c-2.831,0.897-5.171-0.094-5.947-2.543C692.161,66.507,692.091,65.313,692.289,64.44z
				 M699.088,67.384c0.691-0.207,1.197-0.897,0.872-1.926c-0.286-0.901-0.961-1.316-1.851-1.033
				c-0.824,0.261-1.155,0.938-0.869,1.84C697.555,67.256,698.331,67.637,699.088,67.384z"/>
		</g>
	</g>
	<g>
		<path fill="#F4F4F4" d="M955.692,59.643c0,0,14.567-10.973,37.469-7.002c-14.249-21.917-29.472-24.771-29.472-24.771
			l-17.575,3.111L955.692,59.643z"/>
		<path fill="#F4F4F4" d="M1024.406,57.289c0,0,31.897,8.946,65.015-14.541c-20.427-17.532-55.467-31.501-67.699-35.838
			c-4.292-1.521-7.321,0.188-7.321,0.188c0,0-10.346,5.857-13.317,7.554c-6.392,3.651-2.402,8.624-2.402,8.624L1024.406,57.289z"/>
		<path fill="#EDEDED" d="M929.463,30.247c-0.166-12.36,19.015-9.507,19.015-9.507l29.786,29.95c0,0,66.021-20.308,97.141-23.089
			c34.223-3.058,47.034,8.551,47.034,8.551s17.847-2.2,20.508,9.209c2.663,11.409-8.405,20.62-53.525,33.374
			S951.488,93.869,951.488,93.869s-0.974-1.877-2.51-5.042C943.252,77.03,929.69,47.34,929.463,30.247z"/>
		<path fill="#B5C4C6" d="M1143.072,50.729c0,0-88.113,38.798-195.07,36.086c3.486,7.054,3.486,7.054,3.486,7.054
			s26.619,2.727,124.388-9.906C1085.701,81.312,1139.44,68.359,1143.072,50.729"/>
		<path fill="#F4F4F4" d="M946.101,80.495c0,0,14.567-10.973,37.47-7.002c-7.997,15.38-17.811,27.108-17.811,27.108
			s-2.917,4.435-7.909,4.435c-4.991,0-7.371,0-11.41,0c-7.446,0-5.237-5.092-5.237-5.092L946.101,80.495z"/>
		<path fill="#F4F4F4" d="M1014.851,82.763c0,0,25.357-19.098,65.218-12.187c-13.919,26.77-41.499,56.98-41.499,56.98
			s-2.747,4.655-9.394,4.257c-6.646-0.399-15.129-0.854-19.829-1.189c-8.54-0.609-4.744-7.403-4.744-7.403L1014.851,82.763z"/>
		<circle opacity="0.2" fill="#7F7F7F" cx="1083.657" cy="45.158" r="3.513"/>
		<circle opacity="0.2" fill="#7F7F7F" cx="1072.8" cy="47.825" r="3.512"/>
		<circle opacity="0.2" fill="#7F7F7F" cx="1061.227" cy="50.356" r="3.512"/>
		<circle opacity="0.2" fill="#7F7F7F" cx="1049.022" cy="52.832" r="3.513"/>
		<circle opacity="0.2" fill="#7F7F7F" cx="1037.782" cy="54.678" r="3.512"/>
		<circle opacity="0.2" fill="#7F7F7F" cx="1025.207" cy="57.464" r="3.512"/>
		<circle opacity="0.2" fill="#7F7F7F" cx="1012.857" cy="59.661" r="3.513"/>
		<circle opacity="0.2" fill="#7F7F7F" cx="1000.805" cy="61.819" r="3.513"/>
		<path fill="#677C89" d="M1104.686,28.831c-0.304,0.211-4.883,3.477-8.687,5.061c-3.802,1.584,3.803,8.537,5.388,7.754
			c2.526-0.427,14.911-4.241,18.656-7.173C1114.791,30.86,1104.686,28.831,1104.686,28.831"/>
		<g>
			<path fill="#3D4D59" d="M943.261,40.372c-0.953,0.302-2.176-0.079-3.473-0.729l-2.68-1.316l1.247,3.936l-1.676,0.531
				l-2.073-6.538l1.371-0.435l4.421,2.134c0.732,0.368,1.474,0.552,1.906,0.415c0.559-0.177,0.752-0.712,0.518-1.449
				c-0.232-0.736-0.949-1.5-1.886-2.07l1.254-1.25c1.167,0.817,2.036,1.842,2.426,3.073
				C945.167,38.412,944.657,39.929,943.261,40.372z"/>
			<path fill="#3D4D59" d="M938.514,45.448c-0.585,0.186-1.146-0.084-1.326-0.656c-0.177-0.558,0.121-1.113,0.705-1.299
				c0.598-0.189,1.137,0.1,1.313,0.659C939.387,44.724,939.11,45.259,938.514,45.448z"/>
			<path fill="#3D4D59" d="M944.868,53.155c-2.907,0.921-4.959,0.048-5.747-2.439c-0.797-2.514,0.382-4.396,3.288-5.318
				c2.894-0.917,4.929-0.054,5.726,2.46C948.923,50.347,947.763,52.237,944.868,53.155z M943.062,47.456
				c-2.096,0.664-2.803,1.517-2.404,2.773c0.396,1.244,1.465,1.534,3.559,0.87c2.082-0.66,2.776-1.509,2.382-2.753
				C946.2,47.089,945.144,46.796,943.062,47.456z"/>
			<path fill="#3D4D59" d="M947.68,62.024c-2.907,0.921-4.958,0.048-5.747-2.439c-0.797-2.514,0.381-4.396,3.287-5.318
				c2.896-0.917,4.929-0.053,5.727,2.46C951.734,59.215,950.573,61.106,947.68,62.024z M945.873,56.324
				c-2.095,0.664-2.802,1.517-2.404,2.773c0.395,1.244,1.465,1.534,3.559,0.87c2.082-0.66,2.775-1.509,2.382-2.753
				C949.011,55.958,947.955,55.665,945.873,56.324z"/>
			<path fill="#3D4D59" d="M944.227,64.44l1.713,0.295c-0.198,0.649-0.185,1.399,0.033,2.085c0.482,1.523,1.716,1.929,3.277,1.392
				c-0.784-0.227-1.419-0.863-1.746-1.891c-0.559-1.765,0.238-3.219,1.965-3.766c1.879-0.596,3.452,0.316,4.076,2.284
				c0.741,2.336-0.468,4.297-3.197,5.163c-2.831,0.897-5.171-0.094-5.947-2.543C944.099,66.507,944.028,65.313,944.227,64.44z
				 M951.025,67.384c0.691-0.207,1.197-0.897,0.872-1.926c-0.286-0.901-0.961-1.316-1.851-1.033
				c-0.824,0.261-1.155,0.938-0.869,1.84C949.492,67.256,950.269,67.637,951.025,67.384z"/>
		</g>
	</g>
</g>
<g id="clouds">
	<path opacity="0.9" fill="#FFFFFF" d="M157.58,211.231h-44.156c7.758-2.574,13.36-9.876,13.36-18.498
		c0-10.769-8.73-19.499-19.498-19.499H47.103c7.079-2.444,12.172-9.148,12.172-17.058c0-9.974-8.085-18.059-18.059-18.059h-55.377
		c-9.974,0-18.059,8.085-18.059,18.059c0,7.91,5.093,14.614,12.172,17.058h-13.66c-10.769,0-19.499,8.73-19.499,19.499
		s8.73,19.499,19.499,19.499h12.692c-7.376,2.501-12.692,9.466-12.692,17.688c0,10.321,8.368,18.689,18.689,18.689h71.418
		c-7.051,2.438-12.123,9.118-12.123,16.998c0,9.94,8.059,17.999,17.999,17.999h58.497c9.94,0,17.999-8.059,17.999-17.999
		c0-7.88-5.072-14.56-12.123-16.998h30.932c10.322,0,18.689-8.368,18.689-18.689S167.902,211.231,157.58,211.231z"/>
	<path opacity="0.8" fill="#FFFFFF" d="M446.244,170.867h-44.156c7.758-2.574,13.36-9.876,13.36-18.498
		c0-10.769-8.73-19.499-19.498-19.499h-60.183c7.079-2.444,12.172-9.148,12.172-17.058c0-9.974-8.085-18.059-18.059-18.059h-55.377
		c-9.975,0-18.06,8.085-18.06,18.059c0,7.91,5.093,14.614,12.173,17.058h-13.66c-10.77,0-19.5,8.73-19.5,19.499
		s8.73,19.499,19.5,19.499h12.691c-7.375,2.501-12.691,9.466-12.691,17.688c0,10.321,8.367,18.689,18.688,18.689h71.418
		c-7.052,2.438-12.123,9.118-12.123,16.998c0,9.94,8.059,17.999,17.999,17.999h58.497c9.94,0,17.999-8.059,17.999-17.999
		c0-7.88-5.072-14.56-12.123-16.998h30.932c10.322,0,18.689-8.368,18.689-18.689S456.566,170.867,446.244,170.867z"/>
	<path opacity="0.7" fill="#FFFFFF" d="M630.787,73.114h-44.156c7.758-2.574,13.359-9.876,13.359-18.498
		c0-10.769-8.73-19.499-19.498-19.499h-60.182c7.078-2.444,12.172-9.148,12.172-17.058C532.482,8.085,524.396,0,514.424,0h-55.378
		c-9.974,0-18.06,8.085-18.06,18.059c0,7.91,5.094,14.614,12.173,17.058h-13.66c-10.769,0-19.499,8.73-19.499,19.499
		s8.73,19.499,19.499,19.499h12.692c-7.376,2.501-12.692,9.466-12.692,17.688c0,10.321,8.368,18.689,18.688,18.689h71.418
		c-7.051,2.438-12.123,9.118-12.123,16.998c0,9.94,8.059,17.999,18,17.999h58.496c9.941,0,18-8.059,18-17.999
		c0-7.88-5.072-14.56-12.123-16.998h30.932c10.322,0,18.689-8.368,18.689-18.689S641.109,73.114,630.787,73.114z"/>
</g>
<g id="eyes">
	<circle fill="#FF0808" cx="179.916" cy="335.651" r="2.884"/>
	<circle fill="#FF0808" cx="193.006" cy="332.767" r="2.884"/>
</g>
</svg>
